<?xml version="1.0" encoding="UTF-8" standalone="no"?>
<svg version="1.1" preserveAspectRatio="xMidYMid meet" xmlns="http://www.w3.org/2000/svg" xmlns:xlink="http://www.w3.org/1999/xlink" viewBox="0 0 1000 1000" width="1000" height="1000">
	<defs>
		<path d="M656.909,379.731 A156.909,156.909 0 1 0 343.091,379.731 A156.909,156.909 0 1 0 656.909,379.731 Z" stroke-linecap="round" stroke-linejoin="round" stroke-miterlimit="25" id="def-ec2445b1-4f80-4bd7-8f39-b16f55f5debb"></path>
		<g transform="matrix(2.210, 0.000, 0.000, 2.210, 389.467, 273.585)" fill="#000" stroke="none" stroke-width="1" id="def-1fd93011-df7f-496b-874e-28400a426f9e">
			<g transform="translate(0.024, -1.961)">
				<g>
					<g>
						<path fill="none" d=" M51.001,97.508 c-15.741,0 -31.482 -0.015 -47.224,0.031 c-1.09,0.004 -1.302 -0.211 -1.3 -1.301 c0.038 -30.467,0.038 -60.934,0 -91.4 c-0.001 -1.09,0.21 -1.302,1.3 -1.3 c31.482,0.038,62.965,0.038,94.447,0 c1.09 -0.001,1.302,0.21,1.3,1.3 c-0.038,30.467 -0.038,60.934,0,91.4 c0.002,1.09 -0.21,1.305 -1.3,1.301 C82.483,97.493,66.742,97.508,51.001,97.508 z M45.219,74.592 c0 -2.283,0.048 -4.568 -0.013 -6.851 c-0.063 -2.343,0.976 -3.835,3.175 -4.591 c1.596 -0.547,3.181 -1.128,4.757 -1.729 c0.971 -0.37,1.974 -0.39,2.986 -0.465 c1.22 -0.091,1.889,0.407,2.189,1.578 c0.299,1.162,0.7,2.334,2.053,2.657 c1.785,0.428,2.802,1.793,3.853,3.083 c0.647,0.796,1.396,1.44,2.145,2.124 c1.393,1.271,3.167,1.941,4.585,3.155 c1.527,1.307,2.158,2.915,1.815,4.896 c-0.467,2.693 -1.09,5.239 -3.98,6.523 c-0.983,0.437 -0.796,1.332,0.238,1.896 c1.259,0.686,2.632,0.596,3.973,0.482 c1.922 -0.162,3.402 -1.436,3.579 -3.349 c0.2 -2.182,0.781 -4.32,0.649 -6.545 c-0.08 -1.342 -0.146 -2.757,0.188 -4.033 c0.465 -1.778 -0.112 -2.866 -1.468 -3.916 c-1.058 -0.818 -2.134 -1.723 -2.752 -2.945 c-0.429 -0.847 -1.366 -1.602 -0.826 -2.759 c0.869,0.38,1.472,1.047,2.092,1.752 c1.496,1.7,2.928,3.457,4.715,4.897 c2.345,1.89,5.16,2.854,7.775,4.212 c3.132,1.626,5.3,3.866,4.966,7.726 c-0.05,0.588 -0.044,1.188,0.006,1.775 c0.087,0.991 -0.262,1.826 -0.837,2.588 c-0.305,0.404 -0.711,0.744 -0.959,1.178 c-0.662,1.157 -0.159,2.277,1.15,2.417 c1.171,0.124,2.373,0.152,3.544,0.039 c1.686 -0.162,2.837 -1.594,2.535 -3.139 c-0.764 -3.896 -1.318 -7.805 -1.465 -11.783 c-0.085 -2.289 -0.899 -4.281 -3.223 -5.336 c-1.092 -0.495 -1.853 -1.401 -2.533 -2.405 c-1.86 -2.747 -3.121 -5.776 -4.296 -8.849 c-1.24 -3.239 -1.328 -6.776 -2.547 -10.025 c-1.313 -3.502 -2.887 -6.811 -5.898 -9.264 c-2.122 -1.729 -4.443 -3.053 -6.939 -4.121 c-3.04 -1.301 -6.167 -2.324 -9.482 -2.495 c-5.138 -0.265 -10.203 -0.736 -15.239 -2.018 c-4.151 -1.057 -7.317 -3.358 -10.048 -6.347 c-1.652 -1.809 -3.296 -3.611 -5.123 -5.232 c-1.668 -1.481 -3.103 -3.052 -3.541 -5.343 c-0.494 -2.589 -1.801 -4.904 -2.597 -7.395 c-0.4 -1.252 -1.138 -1.383 -1.976 -0.43 c-0.907,1.031 -1.341,2.337 -1.931,3.549 c-0.325,0.667 -0.588,0.912 -1.209,0.193 c-1.229 -1.42 -2.049 -3.087 -3.014 -4.667 c-0.182 -0.297 -0.401 -0.61 -0.773 -0.413 c-0.176,0.093 -0.313,0.424 -0.318,0.65 c-0.032,1.352 -0.092,2.709 -0.002,4.055 c0.096,1.439 -0.319,2.475 -1.759,2.952 c-0.079,0.026 -0.152,0.07 -0.228,0.108 c-3.449,1.732 -6.656,3.657 -6.952,8.116 c-0.03,0.456 -0.475,0.877 -0.692,1.331 c-0.912,1.906 -1.66,3.854 -1.583,6.024 c0.053,1.497,0.723,2.497,2.093,3.175 c2.399,1.189,4.92,2.143,7.117,3.744 c0.952,0.693,2.092,1.019,3.331,1.07 c1.708,0.07,2.269,0.516,2.666,2.122 c0.506,2.049,0.698,4.105,0.31,6.251 c-0.371,2.051 -0.685,4.208 -0.439,6.249 c0.35,2.905,1.102,5.781,2.567,8.404 c0.448,0.802,0.815,1.692,1.005,2.587 c1.106,5.214,3.2,10.09,4.965,15.083 c0.802,2.269,1.567,4.651,1.304,7.151 c-0.228,2.161 -0.362,4.39 -2.769,5.488 c-0.355,0.162 -0.633,0.562 -0.873,0.902 c-1.107,1.584 -0.833,2.246,1.042,2.724 c0.819,0.208,1.619,0.435,2.48,0.442 c3.039,0.025,4.154 -1.097,4.518 -4.168 c0.187 -1.577 -0.159 -3.222,0.541 -4.737 c0.448 -0.97,0.338 -1.934,0.105 -2.949 c-0.469 -2.045 -0.879 -4.09 -1.138 -6.192 c-0.296 -2.406 -0.065 -4.895 -0.979 -7.255 c-0.467 -1.208 -0.81 -2.548 -0.626 -3.914 c1.536 -0.452,2.648,0.702,3.977,1.027 c1.496,0.367,2.077,1.355,2.101,2.735 c0.06,3.469,1.26,6.743,1.667,10.147 c0.259,2.172,0.619,4.369,0.524,6.537 c-0.117,2.688 -0.566,5.378 -2.399,7.592 c-0.367,0.443 -0.59,1.027 -0.797,1.578 c-0.553,1.474 -0.126,2.31,1.441,2.519 c1.163,0.156,2.363,0.085,3.543,0.042 c0.831 -0.03,1.39 -0.569,1.778 -1.266 c0.419 -0.751,0.621 -1.55,0.587 -2.429 c-0.054 -1.462,0.151 -3.061,1.065 -4.073 c1.224 -1.358,1.254 -2.829,0.944 -4.255 C44.928,81.161,45.357,77.869,45.219,74.592 z"></path>
						<path fill-rule="evenodd" clip-rule="evenodd" d=" M45.219,74.592 c0.138,3.277 -0.291,6.569,0.42,9.846 c0.31,1.426,0.279,2.896 -0.944,4.255 c-0.914,1.013 -1.119,2.611 -1.065,4.073 c0.033,0.879 -0.168,1.678 -0.587,2.429 c-0.388,0.696 -0.947,1.235 -1.778,1.266 c-1.181,0.043 -2.381,0.114 -3.543 -0.042 c-1.568 -0.209 -1.995 -1.045 -1.441 -2.519 c0.207 -0.551,0.43 -1.135,0.797 -1.578 c1.833 -2.214,2.282 -4.903,2.399 -7.592 c0.094 -2.168 -0.266 -4.365 -0.524 -6.537 c-0.406 -3.404 -1.606 -6.679 -1.667 -10.147 c-0.023 -1.38 -0.605 -2.368 -2.101 -2.735 c-1.328 -0.325 -2.441 -1.479 -3.977 -1.027 c-0.184,1.366,0.159,2.706,0.626,3.914 c0.914,2.36,0.683,4.849,0.979,7.255 c0.258,2.103,0.668,4.147,1.138,6.192 c0.233,1.016,0.343,1.979 -0.105,2.949 c-0.7,1.516 -0.354,3.16 -0.541,4.737 c-0.364,3.071 -1.479,4.193 -4.518,4.168 c-0.862 -0.008 -1.662 -0.234 -2.48 -0.442 c-1.876 -0.478 -2.15 -1.14 -1.042 -2.724 c0.239 -0.341,0.517 -0.74,0.873 -0.902 c2.407 -1.099,2.541 -3.327,2.769 -5.488 c0.263 -2.5 -0.502 -4.883 -1.304 -7.151 c-1.765 -4.993 -3.859 -9.869 -4.965 -15.083 c-0.19 -0.895 -0.557 -1.785 -1.005 -2.587 c-1.466 -2.623 -2.218 -5.499 -2.567 -8.404 c-0.245 -2.041,0.069 -4.198,0.439 -6.249 c0.388 -2.146,0.196 -4.202 -0.31 -6.251 c-0.397 -1.606 -0.958 -2.052 -2.666 -2.122 c-1.239 -0.051 -2.379 -0.376 -3.331 -1.07 c-2.197 -1.601 -4.717 -2.555 -7.117 -3.744 c-1.37 -0.679 -2.041 -1.678 -2.093 -3.175 c-0.077 -2.171,0.671 -4.119,1.583 -6.024 c0.217 -0.454,0.662 -0.875,0.692 -1.331 c0.295 -4.459,3.503 -6.383,6.952 -8.116 c0.075 -0.038,0.148 -0.082,0.228 -0.108 c1.44 -0.477,1.854 -1.513,1.759 -2.952 c-0.089 -1.346 -0.029 -2.704,0.002 -4.055 c0.005 -0.227,0.142 -0.557,0.318 -0.65 c0.372 -0.197,0.591,0.116,0.773,0.413 c0.965,1.58,1.786,3.247,3.014,4.667 c0.621,0.719,0.885,0.474,1.209 -0.193 c0.59 -1.212,1.024 -2.518,1.931 -3.549 c0.837 -0.953,1.576 -0.822,1.976,0.43 c0.796,2.491,2.103,4.806,2.597,7.395 c0.438,2.291,1.872,3.862,3.541,5.343 c1.827,1.621,3.471,3.423,5.123,5.232 c2.73,2.989,5.896,5.29,10.048,6.347 c5.036,1.282,10.101,1.753,15.239,2.018 c3.315,0.17,6.442,1.194,9.482,2.495 c2.496,1.068,4.817,2.393,6.939,4.121 c3.012,2.454,4.585,5.762,5.898,9.264 c1.219,3.249,1.307,6.786,2.547,10.025 c1.175,3.072,2.436,6.102,4.296,8.849 c0.681,1.004,1.441,1.91,2.533,2.405 c2.323,1.055,3.138,3.047,3.223,5.336 c0.146,3.979,0.701,7.887,1.465,11.783 c0.302,1.545 -0.85,2.977 -2.535,3.139 c-1.171,0.113 -2.373,0.085 -3.544 -0.039 c-1.31 -0.14 -1.812 -1.26 -1.15 -2.417 c0.248 -0.434,0.654 -0.773,0.959 -1.178 c0.575 -0.762,0.924 -1.597,0.837 -2.588 c-0.05 -0.588 -0.056 -1.188 -0.006 -1.775 c0.334 -3.859 -1.834 -6.1 -4.966 -7.726 c-2.615 -1.357 -5.431 -2.322 -7.775 -4.212 c-1.787 -1.44 -3.219 -3.197 -4.715 -4.897 c-0.62 -0.705 -1.223 -1.372 -2.092 -1.752 c-0.54,1.157,0.397,1.912,0.826,2.759 c0.618,1.223,1.694,2.127,2.752,2.945 c1.355,1.05,1.933,2.138,1.468,3.916 c-0.334,1.276 -0.269,2.691 -0.188,4.033 c0.132,2.225 -0.449,4.363 -0.649,6.545 c-0.177,1.913 -1.657,3.187 -3.579,3.349 c-1.341,0.113 -2.714,0.203 -3.973 -0.482 c-1.034 -0.564 -1.222 -1.46 -0.238 -1.896 c2.891 -1.284,3.514 -3.83,3.98 -6.523 c0.343 -1.981 -0.288 -3.59 -1.815 -4.896 c-1.418 -1.214 -3.192 -1.885 -4.585 -3.155 c-0.748 -0.684 -1.497 -1.328 -2.145 -2.124 c-1.051 -1.29 -2.067 -2.655 -3.853 -3.083 c-1.353 -0.323 -1.754 -1.495 -2.053 -2.657 c-0.301 -1.171 -0.97 -1.669 -2.189 -1.578 c-1.013,0.075 -2.016,0.095 -2.986,0.465 c-1.576,0.601 -3.162,1.182 -4.757,1.729 c-2.2,0.756 -3.238,2.248 -3.175,4.591 C45.268,70.023,45.219,72.309,45.219,74.592 z"></path>
					</g>
				</g>
			</g>
		</g>
		<mask id="mask-b37a5c75-06dd-46ca-91ee-5e0cc2540ee7" x="292.880" y="172.377" width="414.241" height="414.709" maskUnits="userSpaceOnUse" stroke-width="0">
			<rect x="311.709" y="191.206" width="376.582" height="377.051" fill="#fff"></rect>
			<use xlink:href="#def-1fd93011-df7f-496b-874e-28400a426f9e"></use>
		</mask>
		<g mask="url(#mask-b37a5c75-06dd-46ca-91ee-5e0cc2540ee7)" id="def-5fb9f556-22fd-44ef-9291-5f9515ceaaae">
			<use xlink:href="#def-ec2445b1-4f80-4bd7-8f39-b16f55f5debb" stroke-width="0.000"></use>
		</g>
		<path d="M128.960,645.854 C122.878,645.854,117.557,648.678,114.842,654.217 L114.842,625.329 L110.281,625.329 L110.281,703.847 L114.190,703.847 L114.733,697.874 C117.665,702.218,122.769,705.041,128.634,705.041 C138.516,705.041,145.684,697.765,145.684,684.950 L145.684,665.620 C145.684,653.131,139.168,645.854,128.960,645.854 Z M141.014,684.950 C141.014,695.376,135.693,700.697,127.656,700.697 C120.597,700.697,114.842,695.159,114.842,685.602 L114.842,666.923 C114.842,656.389,120.380,650.198,127.874,650.198 C136.127,650.198,141.014,655.411,141.014,665.620 Z M185.649,636.298 C188.255,636.298,189.884,634.669,189.884,632.062 C189.884,629.565,188.255,627.827,185.649,627.827 C183.151,627.827,181.522,629.565,181.522,632.062 C181.522,634.669,183.151,636.298,185.649,636.298 Z M183.368,703.847 L188.038,703.847 L188.038,647.049 L183.368,647.049 Z M256.999,647.049 L256.564,653.565 C253.632,648.569,248.854,645.854,243.098,645.854 C232.889,645.854,225.613,653.131,225.613,665.945 L225.613,683.213 C225.613,695.267,232.998,702.543,243.315,702.543 C248.745,702.543,253.523,700.046,256.347,695.810 L256.347,707.539 C256.347,715.684,251.786,720.245,244.184,720.245 C236.256,720.245,231.695,716.010,231.043,708.734 L226.482,708.734 C227.025,718.399,233.650,724.698,244.184,724.698 C254.501,724.698,261.125,718.073,261.125,707.539 L261.125,647.049 Z M243.967,698.091 C235.822,698.091,230.283,692.769,230.283,683.213 L230.283,665.945 C230.283,655.520,235.822,650.307,243.967,650.307 C250.808,650.307,256.347,655.520,256.347,664.642 L256.347,683.756 C256.347,692.769,251.351,698.091,243.967,698.091 Z M368.965,645.854 C362.883,645.854,357.562,648.678,354.847,654.217 L354.847,625.329 L350.286,625.329 L350.286,703.847 L354.195,703.847 L354.738,697.874 C357.670,702.218,362.775,705.041,368.639,705.041 C378.522,705.041,385.689,697.765,385.689,684.950 L385.689,665.620 C385.689,653.131,379.173,645.854,368.965,645.854 Z M381.019,684.950 C381.019,695.376,375.698,700.697,367.662,700.697 C360.603,700.697,354.847,695.159,354.847,685.602 L354.847,666.923 C354.847,656.389,360.385,650.198,367.879,650.198 C376.132,650.198,381.019,655.411,381.019,665.620 Z M439.989,705.041 C450.958,705.041,458.017,697.874,458.017,685.602 L458.017,665.294 C458.017,653.022,450.958,645.854,439.989,645.854 C428.912,645.854,421.961,653.022,421.961,665.294 L421.961,685.602 C421.961,697.874,428.912,705.041,439.989,705.041 Z M439.989,700.480 C431.735,700.480,426.631,695.267,426.631,685.602 L426.631,665.294 C426.631,655.628,431.735,650.416,439.989,650.416 C448.243,650.416,453.238,655.628,453.238,665.294 L453.238,685.602 C453.238,695.267,448.243,700.480,439.989,700.480 Z M510.036,705.041 C519.701,705.041,526.869,699.068,526.869,690.163 C526.869,670.507,497.438,675.176,497.438,660.515 C497.438,654.217,501.999,650.307,508.950,650.307 C516.443,650.307,520.896,654.542,521.113,661.927 L525.783,661.927 C525.565,652.153,519.049,645.854,508.950,645.854 C499.393,645.854,492.660,651.719,492.660,660.407 C492.660,679.412,522.090,674.851,522.090,690.054 C522.090,696.570,517.095,700.480,510.036,700.480 C501.782,700.480,496.895,696.136,496.678,687.774 L492.008,687.774 C492.225,698.525,499.284,705.041,510.036,705.041 Z M580.843,699.828 C573.675,699.828,570.200,696.027,570.200,688.208 L570.200,651.393 L582.472,651.393 L582.472,647.049 L570.200,647.049 L570.200,633.800 L565.530,633.800 L565.530,647.049 L557.168,647.049 L557.168,651.393 L565.530,651.393 L565.530,688.208 C565.530,698.634,570.852,704.281,580.843,704.281 L583.558,704.281 L583.558,699.828 Z M634.274,705.041 C645.242,705.041,652.301,697.874,652.301,685.602 L652.301,665.294 C652.301,653.022,645.242,645.854,634.274,645.854 C623.197,645.854,616.246,653.022,616.246,665.294 L616.246,685.602 C616.246,697.874,623.197,705.041,634.274,705.041 Z M634.274,700.480 C626.020,700.480,620.916,695.267,620.916,685.602 L620.916,665.294 C620.916,655.628,626.020,650.416,634.274,650.416 C642.527,650.416,647.523,655.628,647.523,665.294 L647.523,685.602 C647.523,695.267,642.527,700.480,634.274,700.480 Z M709.968,645.854 C702.909,645.854,697.696,649.547,694.655,655.411 L694.655,654.434 L694.003,647.049 L689.985,647.049 L689.985,703.847 L694.655,703.847 L694.655,669.203 C694.655,657.583,700.519,650.307,708.882,650.307 C716.375,650.307,720.067,655.954,720.067,667.792 L720.067,703.847 L724.737,703.847 L724.737,667.140 C724.737,652.370,718.981,645.854,709.968,645.854 Z M815.526,636.298 C818.133,636.298,819.762,634.669,819.762,632.062 C819.762,629.565,818.133,627.827,815.526,627.827 C813.029,627.827,811.400,629.565,811.400,632.062 C811.400,634.669,813.029,636.298,815.526,636.298 Z M813.246,703.847 L817.916,703.847 L817.916,647.049 L813.246,647.049 Z M873.519,705.041 C884.487,705.041,891.546,697.874,891.546,685.602 L891.546,665.294 C891.546,653.022,884.487,645.854,873.519,645.854 C862.442,645.854,855.491,653.022,855.491,665.294 L855.491,685.602 C855.491,697.874,862.442,705.041,873.519,705.041 Z M873.519,700.480 C865.265,700.480,860.161,695.267,860.161,685.602 L860.161,665.294 C860.161,655.628,865.265,650.416,873.519,650.416 C881.772,650.416,886.768,655.628,886.768,665.294 L886.768,685.602 C886.768,695.267,881.772,700.480,873.519,700.480 Z" id="def-9e8d6f6c-a697-447d-bd32-080ec575a369"></path>
		<path d="M289.008,771.398 L289.008,740.772 L291.657,740.772 L291.657,771.398 L289.008,771.398 Z M319.893,760.016 L319.893,761.189 L303.951,761.189 Q304.081,765.142,306.036,767.249 Q307.991,769.356,311.596,769.356 L311.596,769.356 Q315.419,769.356,318.503,766.749 L318.503,766.749 L319.546,768.835 Q318.156,770.138,316.005,770.920 Q313.855,771.702,311.596,771.702 L311.596,771.702 Q306.775,771.702,303.994,768.791 Q301.214,765.881,301.214,760.798 L301.214,760.798 Q301.214,757.540,302.452,755.042 Q303.690,752.545,305.927,751.176 Q308.165,749.808,311.075,749.808 L311.075,749.808 Q315.202,749.808,317.548,752.501 Q319.893,755.194,319.893,760.016 L319.893,760.016 Z M311.075,751.980 Q308.034,751.980,306.210,753.891 Q304.385,755.803,304.038,759.234 L304.038,759.234 L317.461,759.234 Q317.374,755.759,315.723,753.870 Q314.072,751.980,311.075,751.980 L311.075,751.980 Z M337.877,769.443 Q338.833,769.443,339.745,769.312 L339.745,769.312 L339.615,771.528 Q338.659,771.658,337.573,771.658 L337.573,771.658 Q334.011,771.658,332.187,769.725 Q330.362,767.792,330.362,764.447 L330.362,764.447 L330.362,752.458 L326.192,752.458 L326.192,750.329 L330.362,750.329 L330.362,743.813 L333.012,743.813 L333.012,750.329 L339.181,750.329 L339.181,752.458 L333.012,752.458 L333.012,764.100 Q333.012,766.749,334.250,768.096 Q335.488,769.443,337.877,769.443 L337.877,769.443 Z M347.651,752.545 L346.913,740.772 L350.127,740.772 L349.432,752.545 L347.651,752.545 Z M367.373,771.702 Q362.378,771.702,359.206,768.878 L359.206,768.878 L360.206,766.836 Q361.900,768.226,363.594,768.813 Q365.288,769.399,367.503,769.399 L367.503,769.399 Q370.066,769.399,371.435,768.487 Q372.803,767.575,372.803,765.924 L372.803,765.924 Q372.803,764.534,371.891,763.687 Q370.979,762.840,368.980,762.406 L368.980,762.406 L365.418,761.580 Q362.855,760.972,361.400,759.473 Q359.945,757.975,359.945,755.933 L359.945,755.933 Q359.945,753.196,362.073,751.502 Q364.202,749.808,367.764,749.808 L367.764,749.808 Q369.980,749.808,371.913,750.525 Q373.846,751.241,375.105,752.588 L375.105,752.588 L374.106,754.630 Q372.629,753.327,371.087,752.718 Q369.545,752.110,367.764,752.110 L367.764,752.110 Q365.375,752.110,364.028,753.066 Q362.682,754.022,362.682,755.716 L362.682,755.716 Q362.682,757.106,363.529,757.975 Q364.376,758.843,366.157,759.278 L366.157,759.278 L369.762,760.147 Q375.496,761.450,375.496,765.794 L375.496,765.794 Q375.496,768.487,373.303,770.094 Q371.109,771.702,367.373,771.702 L367.373,771.702 Z M428.754,750.329 L431.490,750.329 L423.801,771.398 L421.065,771.398 L414.723,753.761 L408.337,771.398 L405.600,771.398 L397.955,750.329 L400.778,750.329 L407.034,768.270 L413.506,750.329 L416.113,750.329 L422.455,768.270 L428.754,750.329 Z M448.649,771.702 Q445.739,771.702,443.545,770.355 Q441.351,769.008,440.135,766.532 Q438.919,764.056,438.919,760.755 L438.919,760.755 Q438.919,757.453,440.135,754.977 Q441.351,752.501,443.545,751.155 Q445.739,749.808,448.649,749.808 L448.649,749.808 Q451.516,749.808,453.732,751.155 Q455.947,752.501,457.142,754.977 Q458.336,757.453,458.336,760.755 L458.336,760.755 Q458.336,764.056,457.142,766.532 Q455.947,769.008,453.732,770.355 Q451.516,771.702,448.649,771.702 L448.649,771.702 Z M448.606,769.356 Q451.950,769.356,453.775,767.140 Q455.599,764.925,455.599,760.755 L455.599,760.755 Q455.599,756.671,453.753,754.391 Q451.907,752.110,448.649,752.110 L448.649,752.110 Q445.348,752.110,443.523,754.391 Q441.699,756.671,441.699,760.755 L441.699,760.755 Q441.699,764.925,443.480,767.140 Q445.261,769.356,448.606,769.356 L448.606,769.356 Z M478.666,749.808 L478.883,752.110 L477.015,752.284 Q473.584,752.632,472.041,754.499 Q470.499,756.367,470.499,759.061 L470.499,759.061 L470.499,771.398 L467.849,771.398 L467.849,750.329 L470.456,750.329 L470.456,754.022 Q471.412,752.067,473.171,751.089 Q474.930,750.112,477.537,749.895 L477.537,749.895 L478.666,749.808 Z M504.209,771.398 L500.647,771.398 L489.135,761.146 L489.135,771.398 L486.485,771.398 L486.485,740.772 L489.135,740.772 L489.135,760.060 L499.604,750.329 L503.036,750.329 L492.089,760.451 L504.209,771.398 Z M534.834,769.443 Q535.789,769.443,536.702,769.312 L536.702,769.312 L536.571,771.528 Q535.616,771.658,534.530,771.658 L534.530,771.658 Q530.968,771.658,529.143,769.725 Q527.319,767.792,527.319,764.447 L527.319,764.447 L527.319,752.458 L523.148,752.458 L523.148,750.329 L527.319,750.329 L527.319,743.813 L529.968,743.813 L529.968,750.329 L536.137,750.329 L536.137,752.458 L529.968,752.458 L529.968,764.100 Q529.968,766.749,531.207,768.096 Q532.445,769.443,534.834,769.443 L534.834,769.443 Z M552.774,771.702 Q549.864,771.702,547.670,770.355 Q545.476,769.008,544.260,766.532 Q543.044,764.056,543.044,760.755 L543.044,760.755 Q543.044,757.453,544.260,754.977 Q545.476,752.501,547.670,751.155 Q549.864,749.808,552.774,749.808 L552.774,749.808 Q555.641,749.808,557.857,751.155 Q560.072,752.501,561.267,754.977 Q562.461,757.453,562.461,760.755 L562.461,760.755 Q562.461,764.056,561.267,766.532 Q560.072,769.008,557.857,770.355 Q555.641,771.702,552.774,771.702 L552.774,771.702 Z M552.731,769.356 Q556.076,769.356,557.900,767.140 Q559.725,764.925,559.725,760.755 L559.725,760.755 Q559.725,756.671,557.879,754.391 Q556.032,752.110,552.774,752.110 L552.774,752.110 Q549.473,752.110,547.648,754.391 Q545.824,756.671,545.824,760.755 L545.824,760.755 Q545.824,764.925,547.605,767.140 Q549.386,769.356,552.731,769.356 L552.731,769.356 Z M587.439,750.329 L590.089,750.329 L590.089,770.181 Q590.089,774.786,587.809,777.153 Q585.528,779.521,581.054,779.521 L581.054,779.521 Q575.754,779.521,571.931,776.610 L571.931,776.610 L572.974,774.525 Q575.102,776.002,576.905,776.589 Q578.708,777.175,581.097,777.175 L581.097,777.175 Q584.268,777.175,585.876,775.481 Q587.483,773.787,587.483,770.442 L587.483,770.442 L587.483,766.315 Q586.571,768.444,584.681,769.595 Q582.791,770.746,580.098,770.746 L580.098,770.746 Q577.318,770.746,575.168,769.443 Q573.017,768.140,571.823,765.750 Q570.628,763.361,570.628,760.277 L570.628,760.277 Q570.628,757.193,571.823,754.804 Q573.017,752.414,575.168,751.111 Q577.318,749.808,580.098,749.808 L580.098,749.808 Q582.748,749.808,584.616,750.916 Q586.484,752.023,587.439,754.152 L587.439,754.152 L587.439,750.329 Z M580.446,768.400 Q583.747,768.400,585.593,766.228 Q587.439,764.056,587.439,760.277 L587.439,760.277 Q587.439,756.498,585.571,754.304 Q583.704,752.110,580.446,752.110 L580.446,752.110 Q577.144,752.110,575.276,754.282 Q573.408,756.454,573.408,760.277 L573.408,760.277 Q573.408,764.100,575.276,766.250 Q577.144,768.400,580.446,768.400 L580.446,768.400 Z M618.282,760.016 L618.282,761.189 L602.339,761.189 Q602.470,765.142,604.424,767.249 Q606.379,769.356,609.985,769.356 L609.985,769.356 Q613.807,769.356,616.892,766.749 L616.892,766.749 L617.934,768.835 Q616.544,770.138,614.394,770.920 Q612.244,771.702,609.985,771.702 L609.985,771.702 Q605.163,771.702,602.383,768.791 Q599.603,765.881,599.603,760.798 L599.603,760.798 Q599.603,757.540,600.841,755.042 Q602.079,752.545,604.316,751.176 Q606.553,749.808,609.463,749.808 L609.463,749.808 Q613.590,749.808,615.936,752.501 Q618.282,755.194,618.282,760.016 L618.282,760.016 Z M609.463,751.980 Q606.423,751.980,604.598,753.891 Q602.774,755.803,602.426,759.234 L602.426,759.234 L615.849,759.234 Q615.762,755.759,614.111,753.870 Q612.461,751.980,609.463,751.980 L609.463,751.980 Z M636.266,769.443 Q637.221,769.443,638.134,769.312 L638.134,769.312 L638.003,771.528 Q637.048,771.658,635.962,771.658 L635.962,771.658 Q632.400,771.658,630.575,769.725 Q628.751,767.792,628.751,764.447 L628.751,764.447 L628.751,752.458 L624.580,752.458 L624.580,750.329 L628.751,750.329 L628.751,743.813 L631.401,743.813 L631.401,750.329 L637.569,750.329 L637.569,752.458 L631.401,752.458 L631.401,764.100 Q631.401,766.749,632.639,768.096 Q633.877,769.443,636.266,769.443 L636.266,769.443 Z M655.683,749.808 Q663.285,749.808,663.285,757.975 L663.285,757.975 L663.285,771.398 L660.636,771.398 L660.636,758.148 Q660.636,755.021,659.376,753.587 Q658.116,752.154,655.379,752.154 L655.379,752.154 Q652.252,752.154,650.362,754.065 Q648.472,755.976,648.472,759.191 L648.472,759.191 L648.472,771.398 L645.823,771.398 L645.823,740.772 L648.472,740.772 L648.472,753.848 Q649.471,751.893,651.361,750.851 Q653.251,749.808,655.683,749.808 L655.683,749.808 Z M691.434,760.016 L691.434,761.189 L675.492,761.189 Q675.622,765.142,677.577,767.249 Q679.532,769.356,683.137,769.356 L683.137,769.356 Q686.960,769.356,690.044,766.749 L690.044,766.749 L691.087,768.835 Q689.697,770.138,687.546,770.920 Q685.396,771.702,683.137,771.702 L683.137,771.702 Q678.316,771.702,675.535,768.791 Q672.755,765.881,672.755,760.798 L672.755,760.798 Q672.755,757.540,673.993,755.042 Q675.231,752.545,677.468,751.176 Q679.706,749.808,682.616,749.808 L682.616,749.808 Q686.743,749.808,689.089,752.501 Q691.434,755.194,691.434,760.016 L691.434,760.016 Z M682.616,751.980 Q679.575,751.980,677.751,753.891 Q675.926,755.803,675.579,759.234 L675.579,759.234 L689.002,759.234 Q688.915,755.759,687.264,753.870 Q685.613,751.980,682.616,751.980 L682.616,751.980 Z M711.677,749.808 L711.895,752.110 L710.027,752.284 Q706.595,752.632,705.053,754.499 Q703.511,756.367,703.511,759.061 L703.511,759.061 L703.511,771.398 L700.861,771.398 L700.861,750.329 L703.467,750.329 L703.467,754.022 Q704.423,752.067,706.182,751.089 Q707.942,750.112,710.548,749.895 L710.548,749.895 L711.677,749.808 Z" id="def-9367a562-cc94-40aa-a4b8-40af1ebf9b02"></path>
		<mask id="mask-f31691b9-7d0f-495f-ab4b-e5571a54b331" x="68.866" y="161.576" width="862.268" height="651.859" maskUnits="userSpaceOnUse" stroke-width="0">
			<rect x="98.496" y="191.206" width="803.008" height="592.599" fill="#000"></rect>
			<use xlink:href="#def-5fb9f556-22fd-44ef-9291-5f9515ceaaae" fill="#fff" stroke="#fff"></use>
			<use xlink:href="#def-9e8d6f6c-a697-447d-bd32-080ec575a369" fill="#fff" stroke="#fff"></use>
			<use xlink:href="#def-9367a562-cc94-40aa-a4b8-40af1ebf9b02" fill="#fff" stroke="#fff"></use>
		</mask>
	</defs>
	<g mask="url(#mask-f31691b9-7d0f-495f-ab4b-e5571a54b331)">
		<rect x="98.496" y="191.206" width="803.008" height="592.599" fill="#fff"></rect>
	</g>
</svg>
